{
  "accessors": [
    {
      "bufferView": 2,
      "componentType": 5126,
      "count": 9503,
      "max": [
        826.272216796875,
        -0,
        826.2677001953125
      ],
      "min": [
        -826.272216796875,
        -9341.67578125,
        -826.27679443359375
      ],
      "type": "VEC3"
    },
    {
      "bufferView": 2,
      "byteOffset": 114036,
      "componentType": 5126,
      "count": 9503,
      "max": [
        1,
        1,
        1
      ],
      "min": [
        -1,
        -1,
        -1
      ],
      "type": "VEC3"
    },
    {
      "bufferView": 3,
      "componentType": 5126,
      "count": 9503,
      "max": [
        1,
        1,
        1,
        1
      ],
      "min": [
        -1,
        -1,
        -1,
        -1
      ],
      "type": "VEC4"
    },
    {
      "bufferView": 1,
      "componentType": 5126,
      "count": 9503,
      "max": [
        0.99879997968673706,
        0.99910002946853638
      ],
      "min": [
        0.0017999999690800905,
        0.0040000001899898052
      ],
      "type": "VEC2"
    },
    {
      "bufferView": 0,
      "componentType": 5125,
      "count": 29532,
      "max": [
        9502
      ],
      "min": [
        0
      ],
      "type": "SCALAR"
    },
    {
      "bufferView": 2,
      "byteOffset": 228072,
      "componentType": 5126,
      "count": 9476,
      "max": [
        826.272216796875,
        -0,
        826.2677001953125
      ],
      "min": [
        -826.272216796875,
        -9341.67578125,
        -826.27679443359375
      ],
      "type": "VEC3"
    },
    {
      "bufferView": 2,
      "byteOffset": 341784,
      "componentType": 5126,
      "count": 9476,
      "max": [
        1,
        1,
        1
      ],
      "min": [
        -1,
        -1,
        -1
      ],
      "type": "VEC3"
    },
    {
      "bufferView": 3,
      "byteOffset": 152048,
      "componentType": 5126,
      "count": 9476,
      "max": [
        1,
        1,
        1,
        1
      ],
      "min": [
        -1,
        -1,
        -1,
        -1
      ],
      "type": "VEC4"
    },
    {
      "bufferView": 1,
      "byteOffset": 76024,
      "componentType": 5126,
      "count": 9476,
      "max": [
        0.99699997901916504,
        0.99910002946853638
      ],
      "min": [
        0.0017999999690800905,
        0.0020000000949949026
      ],
      "type": "VEC2"
    },
    {
      "bufferView": 0,
      "byteOffset": 118128,
      "componentType": 5125,
      "count": 29718,
      "max": [
        9475
      ],
      "min": [
        0
      ],
      "type": "SCALAR"
    },
    {
      "bufferView": 2,
      "byteOffset": 455496,
      "componentType": 5126,
      "count": 6429,
      "max": [
        826.272216796875,
        -695.6123046875,
        826.2677001953125
      ],
      "min": [
        -826.272216796875,
        -9341.67578125,
        -826.27679443359375
      ],
      "type": "VEC3"
    },
    {
      "bufferView": 2,
      "byteOffset": 532644,
      "componentType": 5126,
      "count": 6429,
      "max": [
        1,
        1,
        1
      ],
      "min": [
        -1,
        -0.99963003396987915,
        -1
      ],
      "type": "VEC3"
    },
    {
      "bufferView": 3,
      "byteOffset": 303664,
      "componentType": 5126,
      "count": 6429,
      "max": [
        1,
        1,
        1,
        1
      ],
      "min": [
        -1,
        -1,
        -1,
        -1
      ],
      "type": "VEC4"
    },
    {
      "bufferView": 1,
      "byteOffset": 151832,
      "componentType": 5126,
      "count": 6429,
      "max": [
        0.99519997835159302,
        0.99370002746582031
      ],
      "min": [
        0.0017999999690800905,
        0.0020000000949949026
      ],
      "type": "VEC2"
    },
    {
      "bufferView": 0,
      "byteOffset": 237000,
      "componentType": 5125,
      "count": 19758,
      "max": [
        6428
      ],
      "min": [
        0
      ],
      "type": "SCALAR"
    },
    {
      "bufferView": 2,
      "byteOffset": 609792,
      "componentType": 5126,
      "count": 9478,
      "max": [
        826.272216796875,
        -695.6121826171875,
        826.2677001953125
      ],
      "min": [
        -826.272216796875,
        -9341.67578125,
        -826.27679443359375
      ],
      "type": "VEC3"
    },
    {
      "bufferView": 2,
      "byteOffset": 723528,
      "componentType": 5126,
      "count": 9478,
      "max": [
        1,
        1,
        1
      ],
      "min": [
        -1,
        -1,
        -1
      ],
      "type": "VEC3"
    },
    {
      "bufferView": 3,
      "byteOffset": 406528,
      "componentType": 5126,
      "count": 9478,
      "max": [
        1,
        1,
        1,
        1
      ],
      "min": [
        -1,
        -1,
        -1,
        -1
      ],
      "type": "VEC4"
    },
    {
      "bufferView": 1,
      "byteOffset": 203264,
      "componentType": 5126,
      "count": 9478,
      "max": [
        0.99650001525878906,
        0.99370002746582031
      ],
      "min": [
        0.002099999925121665,
        0.0020000000949949026
      ],
      "type": "VEC2"
    },
    {
      "bufferView": 0,
      "byteOffset": 316032,
      "componentType": 5125,
      "count": 33408,
      "max": [
        9477
      ],
      "min": [
        0
      ],
      "type": "SCALAR"
    },
    {
      "bufferView": 2,
      "byteOffset": 837264,
      "componentType": 5126,
      "count": 934,
      "max": [
        809.38458251953125,
        0.00019999999494757503,
        809.380126953125
      ],
      "min": [
        -809.38482666015625,
        -6479.5830078125,
        -809.38922119140625
      ],
      "type": "VEC3"
    },
    {
      "bufferView": 2,
      "byteOffset": 848472,
      "componentType": 5126,
      "count": 934,
      "max": [
        1,
        1,
        1
      ],
      "min": [
        -1,
        -1,
        -1
      ],
      "type": "VEC3"
    },
    {
      "bufferView": 3,
      "byteOffset": 558176,
      "componentType": 5126,
      "count": 934,
      "max": [
        0.99951553344726562,
        0.99997228384017944,
        0.99951702356338501,
        1
      ],
      "min": [
        -1,
        -0.9985496997833252,
        -0.99959391355514526,
        -1
      ],
      "type": "VEC4"
    },
    {
      "bufferView": 1,
      "byteOffset": 279088,
      "componentType": 5126,
      "count": 934,
      "max": [
        0.97909998893737793,
        0.99370002746582031
      ],
      "min": [
        0,
        0
      ],
      "type": "VEC2"
    },
    {
      "bufferView": 0,
      "byteOffset": 449664,
      "componentType": 5125,
      "count": 3204,
      "max": [
        933
      ],
      "min": [
        0
      ],
      "type": "SCALAR"
    }
  ],
  "asset": {
    "extras": {
      "author": "noears6 (https://sketchfab.com/noears6)",
      "license": "CC-BY-4.0 (http://creativecommons.org/licenses/by/4.0/)",
      "source": "https://sketchfab.com/models/9a1c691fac774bcca4e2ba565c4c9d9b",
      "title": "Clock Tower (Big Ben)"
    },
    "generator": "Sketchfab-3.45.3",
    "version": "2.0"
  },
  "bufferViews": [
    {
      "buffer": 0,
      "byteLength": 462480,
      "byteOffset": 0,
      "name": "floatBufferViews",
      "target": 34963
    },
    {
      "buffer": 0,
      "byteLength": 286560,
      "byteOffset": 462480,
      "byteStride": 8,
      "name": "floatBufferViews",
      "target": 34962
    },
    {
      "buffer": 0,
      "byteLength": 859680,
      "byteOffset": 749040,
      "byteStride": 12,
      "name": "floatBufferViews",
      "target": 34962
    },
    {
      "buffer": 0,
      "byteLength": 573120,
      "byteOffset": 1608720,
      "byteStride": 16,
      "name": "floatBufferViews",
      "target": 34962
    }
  ],
  "buffers": [
    {
      "byteLength": 2181840,
      "uri": "assets/models/bigBen/scene.bin"
    }
  ],
  "images": [
    {
      "uri": "assets/models/bigBen/textures/Standard_13_baseColor.jpeg"
    },
    {
      "uri": "assets/models/bigBen/textures/Standard_13_emissive.jpeg"
    }
  ],
  "materials": [
    {
      "doubleSided": true,
      "emissiveFactor": [
        0,
        0,
        0
      ],
      "emissiveTexture": {
        "index": 1,
        "texCoord": 0
      },
      "name": "Standard_13",
      "pbrMetallicRoughness": {
        "baseColorFactor": [
          1,
          1,
          1,
          1
        ],
        "baseColorTexture": {
          "index": 0,
          "texCoord": 0
        },
        "metallicFactor": 0,
        "roughnessFactor": 0.59999999999999998
      }
    }
  ],
  "meshes": [
    {
      "primitives": [
        {
          "attributes": {
            "NORMAL": 1,
            "POSITION": 0,
            "TANGENT": 2,
            "TEXCOORD_0": 3
          },
          "indices": 4,
          "material": 0,
          "mode": 4
        }
      ]
    },
    {
      "primitives": [
        {
          "attributes": {
            "NORMAL": 6,
            "POSITION": 5,
            "TANGENT": 7,
            "TEXCOORD_0": 8
          },
          "indices": 9,
          "material": 0,
          "mode": 4
        }
      ]
    },
    {
      "primitives": [
        {
          "attributes": {
            "NORMAL": 11,
            "POSITION": 10,
            "TANGENT": 12,
            "TEXCOORD_0": 13
          },
          "indices": 14,
          "material": 0,
          "mode": 4
        }
      ]
    },
    {
      "primitives": [
        {
          "attributes": {
            "NORMAL": 16,
            "POSITION": 15,
            "TANGENT": 17,
            "TEXCOORD_0": 18
          },
          "indices": 19,
          "material": 0,
          "mode": 4
        }
      ]
    },
    {
      "primitives": [
        {
          "attributes": {
            "NORMAL": 21,
            "POSITION": 20,
            "TANGENT": 22,
            "TEXCOORD_0": 23
          },
          "indices": 24,
          "material": 0,
          "mode": 4
        }
      ]
    }
  ],
  "nodes": [
    {
      "children": [
        1
      ],
      "name": "RootNode (gltf orientation matrix)",
      "rotation": [
        -0.70710678118654746,
        -0,
        -0,
        0.70710678118654757
      ]
    },
    {
      "children": [
        2
      ],
      "matrix": [
        1,
        0,
        0,
        0,
        0,
        -0.003520753001794219,
        -0.99999380111694336,
        0,
        0,
        0.99999380111694336,
        -0.003520753001794219,
        0,
        0,
        -4687.24072265625,
        -4670.76123046875,
        1
      ],
      "name": "RootNode (model correction matrix)"
    },
    {
      "children": [
        3,
        4,
        5,
        6,
        7
      ],
      "name": "10059_big_ben_v2_max2011_it1.obj.cleaner.materialmerger.gles"
    },
    {
      "mesh": 0,
      "name": ""
    },
    {
      "mesh": 1,
      "name": ""
    },
    {
      "mesh": 2,
      "name": ""
    },
    {
      "mesh": 3,
      "name": ""
    },
    {
      "mesh": 4,
      "name": ""
    }
  ],
  "samplers": [
    {
      "magFilter": 9729,
      "minFilter": 9987,
      "wrapS": 10497,
      "wrapT": 10497
    }
  ],
  "scene": 0,
  "scenes": [
    {
      "name": "OSG_Scene",
      "nodes": [
        0
      ]
    }
  ],
  "textures": [
    {
      "sampler": 0,
      "source": 0
    },
    {
      "sampler": 0,
      "source": 1
    }
  ]
}

